<mxfile host="app.diagrams.net" agent="Mozilla/5.0 (Windows NT 10.0; Win64; x64) AppleWebKit/537.36 (KHTML, like Gecko) Chrome/130.0.0.0 YaBrowser/24.12.0.0 Safari/537.36" version="26.0.11">
  <diagram name="Страница — 1" id="h4-aCuVwSsZ9ml8JK8oo">
    <mxGraphModel dx="792" dy="452" grid="1" gridSize="10" guides="1" tooltips="1" connect="1" arrows="1" fold="1" page="1" pageScale="1" pageWidth="827" pageHeight="1169" math="0" shadow="0">
      <root>
        <mxCell id="0" />
        <mxCell id="1" parent="0" />
        <mxCell id="XbYI6ipFNix7zSzo3XHs-4" style="edgeStyle=orthogonalEdgeStyle;rounded=0;orthogonalLoop=1;jettySize=auto;html=1;entryX=0.5;entryY=0;entryDx=0;entryDy=0;" parent="1" source="XbYI6ipFNix7zSzo3XHs-2" target="XbYI6ipFNix7zSzo3XHs-3" edge="1">
          <mxGeometry relative="1" as="geometry" />
        </mxCell>
        <mxCell id="XbYI6ipFNix7zSzo3XHs-2" value="loop" style="ellipse;whiteSpace=wrap;html=1;" parent="1" vertex="1">
          <mxGeometry x="290" y="90" width="70" height="30" as="geometry" />
        </mxCell>
        <mxCell id="XbYI6ipFNix7zSzo3XHs-9" style="edgeStyle=orthogonalEdgeStyle;rounded=0;orthogonalLoop=1;jettySize=auto;html=1;exitX=0.5;exitY=1;exitDx=0;exitDy=0;" parent="1" source="XbYI6ipFNix7zSzo3XHs-3" target="XbYI6ipFNix7zSzo3XHs-8" edge="1">
          <mxGeometry relative="1" as="geometry" />
        </mxCell>
        <mxCell id="XbYI6ipFNix7zSzo3XHs-3" value="пока не поднят стакан и не нажата авар. кнопка" style="rhombus;whiteSpace=wrap;html=1;" parent="1" vertex="1">
          <mxGeometry x="265" y="150" width="120" height="120" as="geometry" />
        </mxCell>
        <mxCell id="XbYI6ipFNix7zSzo3XHs-11" style="edgeStyle=orthogonalEdgeStyle;rounded=0;orthogonalLoop=1;jettySize=auto;html=1;exitX=0.5;exitY=1;exitDx=0;exitDy=0;entryX=0.5;entryY=0;entryDx=0;entryDy=0;" parent="1" source="XbYI6ipFNix7zSzo3XHs-8" target="XbYI6ipFNix7zSzo3XHs-10" edge="1">
          <mxGeometry relative="1" as="geometry" />
        </mxCell>
        <mxCell id="XbYI6ipFNix7zSzo3XHs-8" value="ожидание приема данных с Serial tempStr" style="rounded=0;whiteSpace=wrap;html=1;" parent="1" vertex="1">
          <mxGeometry x="265" y="290" width="120" height="60" as="geometry" />
        </mxCell>
        <mxCell id="XbYI6ipFNix7zSzo3XHs-15" style="edgeStyle=orthogonalEdgeStyle;rounded=0;orthogonalLoop=1;jettySize=auto;html=1;exitX=0.5;exitY=1;exitDx=0;exitDy=0;entryX=0.5;entryY=0;entryDx=0;entryDy=0;" parent="1" source="XbYI6ipFNix7zSzo3XHs-10" target="XbYI6ipFNix7zSzo3XHs-14" edge="1">
          <mxGeometry relative="1" as="geometry" />
        </mxCell>
        <mxCell id="XbYI6ipFNix7zSzo3XHs-10" value="tempStr &amp;lt;&amp;gt; &#39;&#39;" style="rhombus;whiteSpace=wrap;html=1;" parent="1" vertex="1">
          <mxGeometry x="272.5" y="370" width="105" height="70" as="geometry" />
        </mxCell>
        <mxCell id="XbYI6ipFNix7zSzo3XHs-12" value="+" style="text;html=1;align=center;verticalAlign=middle;whiteSpace=wrap;rounded=0;" parent="1" vertex="1">
          <mxGeometry x="317.5" y="260" width="42.5" height="30" as="geometry" />
        </mxCell>
        <mxCell id="XbYI6ipFNix7zSzo3XHs-13" value="+" style="text;html=1;align=center;verticalAlign=middle;whiteSpace=wrap;rounded=0;" parent="1" vertex="1">
          <mxGeometry x="308.75" y="430" width="60" height="30" as="geometry" />
        </mxCell>
        <mxCell id="XbYI6ipFNix7zSzo3XHs-17" style="edgeStyle=orthogonalEdgeStyle;rounded=0;orthogonalLoop=1;jettySize=auto;html=1;exitX=0.5;exitY=1;exitDx=0;exitDy=0;entryX=0;entryY=0.5;entryDx=0;entryDy=0;" parent="1" source="XbYI6ipFNix7zSzo3XHs-14" target="XbYI6ipFNix7zSzo3XHs-3" edge="1">
          <mxGeometry relative="1" as="geometry" />
        </mxCell>
        <mxCell id="XbYI6ipFNix7zSzo3XHs-14" value="make_recipe" style="shape=process;whiteSpace=wrap;html=1;backgroundOutline=1;" parent="1" vertex="1">
          <mxGeometry x="265" y="460" width="120" height="30" as="geometry" />
        </mxCell>
        <mxCell id="XbYI6ipFNix7zSzo3XHs-19" value="" style="shape=waypoint;sketch=0;fillStyle=solid;size=6;pointerEvents=1;points=[];fillColor=none;resizable=0;rotatable=0;perimeter=centerPerimeter;snapToPoint=1;" parent="1" vertex="1">
          <mxGeometry x="315" y="500" width="20" height="20" as="geometry" />
        </mxCell>
        <mxCell id="XbYI6ipFNix7zSzo3XHs-21" value="" style="endArrow=none;html=1;rounded=0;entryX=1;entryY=0.5;entryDx=0;entryDy=0;" parent="1" source="XbYI6ipFNix7zSzo3XHs-19" target="XbYI6ipFNix7zSzo3XHs-10" edge="1">
          <mxGeometry width="50" height="50" relative="1" as="geometry">
            <mxPoint x="420" y="470" as="sourcePoint" />
            <mxPoint x="470" y="420" as="targetPoint" />
            <Array as="points">
              <mxPoint x="400" y="510" />
              <mxPoint x="400" y="405" />
            </Array>
          </mxGeometry>
        </mxCell>
        <mxCell id="XbYI6ipFNix7zSzo3XHs-24" value="-" style="text;html=1;align=center;verticalAlign=middle;whiteSpace=wrap;rounded=0;" parent="1" vertex="1">
          <mxGeometry x="354" y="380" width="60" height="30" as="geometry" />
        </mxCell>
        <mxCell id="XbYI6ipFNix7zSzo3XHs-26" style="edgeStyle=orthogonalEdgeStyle;rounded=0;orthogonalLoop=1;jettySize=auto;html=1;" parent="1" edge="1">
          <mxGeometry relative="1" as="geometry">
            <mxPoint x="330" y="510" as="sourcePoint" />
            <mxPoint x="325" y="130" as="targetPoint" />
            <Array as="points">
              <mxPoint x="325" y="510" />
              <mxPoint x="325" y="550" />
              <mxPoint x="192" y="550" />
              <mxPoint x="192" y="130" />
            </Array>
          </mxGeometry>
        </mxCell>
        <mxCell id="XbYI6ipFNix7zSzo3XHs-27" value="" style="shape=waypoint;sketch=0;fillStyle=solid;size=6;pointerEvents=1;points=[];fillColor=none;resizable=0;rotatable=0;perimeter=centerPerimeter;snapToPoint=1;" parent="1" vertex="1">
          <mxGeometry x="315" y="520" width="20" height="20" as="geometry" />
        </mxCell>
        <mxCell id="XbYI6ipFNix7zSzo3XHs-29" value="" style="endArrow=none;html=1;rounded=0;entryX=1;entryY=0.5;entryDx=0;entryDy=0;" parent="1" source="XbYI6ipFNix7zSzo3XHs-27" target="XbYI6ipFNix7zSzo3XHs-3" edge="1">
          <mxGeometry width="50" height="50" relative="1" as="geometry">
            <mxPoint x="440" y="370" as="sourcePoint" />
            <mxPoint x="490" y="320" as="targetPoint" />
            <Array as="points">
              <mxPoint x="420" y="530" />
              <mxPoint x="420" y="380" />
              <mxPoint x="420" y="210" />
            </Array>
          </mxGeometry>
        </mxCell>
        <mxCell id="XbYI6ipFNix7zSzo3XHs-30" value="-" style="text;html=1;align=center;verticalAlign=middle;whiteSpace=wrap;rounded=0;" parent="1" vertex="1">
          <mxGeometry x="360" y="180" width="60" height="30" as="geometry" />
        </mxCell>
        <mxCell id="XbYI6ipFNix7zSzo3XHs-37" style="edgeStyle=orthogonalEdgeStyle;rounded=0;orthogonalLoop=1;jettySize=auto;html=1;" parent="1" source="XbYI6ipFNix7zSzo3XHs-31" target="XbYI6ipFNix7zSzo3XHs-32" edge="1">
          <mxGeometry relative="1" as="geometry" />
        </mxCell>
        <mxCell id="XbYI6ipFNix7zSzo3XHs-31" value="make_recipe" style="ellipse;whiteSpace=wrap;html=1;" parent="1" vertex="1">
          <mxGeometry x="274.5" y="585" width="101" height="40" as="geometry" />
        </mxCell>
        <mxCell id="XbYI6ipFNix7zSzo3XHs-38" style="edgeStyle=orthogonalEdgeStyle;rounded=0;orthogonalLoop=1;jettySize=auto;html=1;" parent="1" source="XbYI6ipFNix7zSzo3XHs-32" target="XbYI6ipFNix7zSzo3XHs-33" edge="1">
          <mxGeometry relative="1" as="geometry" />
        </mxCell>
        <mxCell id="XbYI6ipFNix7zSzo3XHs-32" value="i in&amp;nbsp;" style="shape=hexagon;perimeter=hexagonPerimeter2;whiteSpace=wrap;html=1;fixedSize=1;" parent="1" vertex="1">
          <mxGeometry x="265" y="650" width="120" height="30" as="geometry" />
        </mxCell>
        <mxCell id="XbYI6ipFNix7zSzo3XHs-33" value="i" style="rhombus;whiteSpace=wrap;html=1;" parent="1" vertex="1">
          <mxGeometry x="302.5" y="700" width="45" height="40" as="geometry" />
        </mxCell>
        <mxCell id="XbYI6ipFNix7zSzo3XHs-39" value="поворот на позицию 1, изготовление рецепта 1" style="rounded=0;whiteSpace=wrap;html=1;" parent="1" vertex="1">
          <mxGeometry x="150" y="770" width="90" height="60" as="geometry" />
        </mxCell>
        <mxCell id="Fy91isjks8ElhdYOzseE-6" value="" style="endArrow=classic;html=1;rounded=0;exitX=0.5;exitY=1;exitDx=0;exitDy=0;entryX=0.5;entryY=0;entryDx=0;entryDy=0;" edge="1" parent="1" source="XbYI6ipFNix7zSzo3XHs-33" target="XbYI6ipFNix7zSzo3XHs-39">
          <mxGeometry width="50" height="50" relative="1" as="geometry">
            <mxPoint x="328.605" y="761.12" as="sourcePoint" />
            <mxPoint x="200" y="760" as="targetPoint" />
            <Array as="points">
              <mxPoint x="325" y="750" />
              <mxPoint x="195" y="750" />
            </Array>
          </mxGeometry>
        </mxCell>
        <mxCell id="Fy91isjks8ElhdYOzseE-7" value="" style="endArrow=classic;html=1;rounded=0;exitX=0.5;exitY=1;exitDx=0;exitDy=0;entryX=0.5;entryY=0.044;entryDx=0;entryDy=0;entryPerimeter=0;" edge="1" parent="1" source="XbYI6ipFNix7zSzo3XHs-33" target="Fy91isjks8ElhdYOzseE-20">
          <mxGeometry width="50" height="50" relative="1" as="geometry">
            <mxPoint x="360" y="770" as="sourcePoint" />
            <mxPoint x="455" y="770" as="targetPoint" />
            <Array as="points">
              <mxPoint x="325" y="750" />
              <mxPoint x="455" y="750" />
            </Array>
          </mxGeometry>
        </mxCell>
        <mxCell id="Fy91isjks8ElhdYOzseE-8" value="" style="endArrow=classic;html=1;rounded=0;entryX=0.5;entryY=0;entryDx=0;entryDy=0;" edge="1" parent="1">
          <mxGeometry width="50" height="50" relative="1" as="geometry">
            <mxPoint x="325" y="750" as="sourcePoint" />
            <mxPoint x="325" y="770" as="targetPoint" />
          </mxGeometry>
        </mxCell>
        <mxCell id="Fy91isjks8ElhdYOzseE-10" value="" style="shape=waypoint;sketch=0;fillStyle=solid;size=6;pointerEvents=1;points=[];fillColor=none;resizable=0;rotatable=0;perimeter=centerPerimeter;snapToPoint=1;" vertex="1" parent="1">
          <mxGeometry x="315" y="740" width="20" height="20" as="geometry" />
        </mxCell>
        <mxCell id="Fy91isjks8ElhdYOzseE-13" value="" style="endArrow=classic;html=1;rounded=0;entryX=0.5;entryY=0;entryDx=0;entryDy=0;" edge="1" parent="1" target="Fy91isjks8ElhdYOzseE-16">
          <mxGeometry width="50" height="50" relative="1" as="geometry">
            <mxPoint x="268" y="750" as="sourcePoint" />
            <mxPoint x="267.5" y="820" as="targetPoint" />
          </mxGeometry>
        </mxCell>
        <mxCell id="Fy91isjks8ElhdYOzseE-14" value="" style="endArrow=classic;html=1;rounded=0;" edge="1" parent="1" target="Fy91isjks8ElhdYOzseE-18">
          <mxGeometry width="50" height="50" relative="1" as="geometry">
            <mxPoint x="384" y="750" as="sourcePoint" />
            <mxPoint x="385" y="820" as="targetPoint" />
          </mxGeometry>
        </mxCell>
        <mxCell id="Fy91isjks8ElhdYOzseE-15" value="" style="endArrow=classic;html=1;rounded=0;exitX=0.5;exitY=1;exitDx=0;exitDy=0;" edge="1" parent="1" source="XbYI6ipFNix7zSzo3XHs-33" target="Fy91isjks8ElhdYOzseE-19">
          <mxGeometry width="50" height="50" relative="1" as="geometry">
            <mxPoint x="390" y="750" as="sourcePoint" />
            <mxPoint x="505" y="820" as="targetPoint" />
            <Array as="points">
              <mxPoint x="325" y="750" />
              <mxPoint x="515" y="750" />
            </Array>
          </mxGeometry>
        </mxCell>
        <mxCell id="Fy91isjks8ElhdYOzseE-16" value="поворот на позицию 2, изготовление рецепта 2" style="rounded=0;whiteSpace=wrap;html=1;" vertex="1" parent="1">
          <mxGeometry x="222.5" y="840" width="90" height="60" as="geometry" />
        </mxCell>
        <mxCell id="Fy91isjks8ElhdYOzseE-17" value="поворот на позицию 3, изготовление рецепта 3" style="rounded=0;whiteSpace=wrap;html=1;" vertex="1" parent="1">
          <mxGeometry x="280" y="770" width="90" height="60" as="geometry" />
        </mxCell>
        <mxCell id="Fy91isjks8ElhdYOzseE-18" value="поворот на позицию 4, изготовление рецепта 4" style="rounded=0;whiteSpace=wrap;html=1;" vertex="1" parent="1">
          <mxGeometry x="339" y="840" width="90" height="60" as="geometry" />
        </mxCell>
        <mxCell id="Fy91isjks8ElhdYOzseE-19" value="поворот на позицию 6, изготовление рецепта 6" style="rounded=0;whiteSpace=wrap;html=1;" vertex="1" parent="1">
          <mxGeometry x="470" y="840" width="90" height="60" as="geometry" />
        </mxCell>
        <mxCell id="Fy91isjks8ElhdYOzseE-20" value="поворот на позицию 5, изготовление рецепта 5" style="rounded=0;whiteSpace=wrap;html=1;" vertex="1" parent="1">
          <mxGeometry x="410" y="770" width="90" height="60" as="geometry" />
        </mxCell>
        <mxCell id="Fy91isjks8ElhdYOzseE-21" value="" style="endArrow=none;html=1;rounded=0;exitDx=0;exitDy=0;entryX=0.5;entryY=1;entryDx=0;entryDy=0;" edge="1" parent="1" source="Fy91isjks8ElhdYOzseE-28" target="Fy91isjks8ElhdYOzseE-19">
          <mxGeometry width="50" height="50" relative="1" as="geometry">
            <mxPoint x="230" y="970" as="sourcePoint" />
            <mxPoint x="280" y="920" as="targetPoint" />
            <Array as="points">
              <mxPoint x="515" y="930" />
            </Array>
          </mxGeometry>
        </mxCell>
        <mxCell id="Fy91isjks8ElhdYOzseE-23" value="" style="endArrow=none;html=1;rounded=0;entryX=0.5;entryY=1;entryDx=0;entryDy=0;" edge="1" parent="1" target="Fy91isjks8ElhdYOzseE-16">
          <mxGeometry width="50" height="50" relative="1" as="geometry">
            <mxPoint x="268" y="930" as="sourcePoint" />
            <mxPoint x="320" y="960" as="targetPoint" />
          </mxGeometry>
        </mxCell>
        <mxCell id="Fy91isjks8ElhdYOzseE-24" value="" style="endArrow=none;html=1;rounded=0;entryX=0.5;entryY=1;entryDx=0;entryDy=0;" edge="1" parent="1" target="Fy91isjks8ElhdYOzseE-18">
          <mxGeometry width="50" height="50" relative="1" as="geometry">
            <mxPoint x="384" y="930" as="sourcePoint" />
            <mxPoint x="420" y="980" as="targetPoint" />
          </mxGeometry>
        </mxCell>
        <mxCell id="Fy91isjks8ElhdYOzseE-25" value="" style="endArrow=none;html=1;rounded=0;entryX=0.5;entryY=1;entryDx=0;entryDy=0;" edge="1" parent="1" target="Fy91isjks8ElhdYOzseE-17">
          <mxGeometry width="50" height="50" relative="1" as="geometry">
            <mxPoint x="325" y="930" as="sourcePoint" />
            <mxPoint x="390" y="960" as="targetPoint" />
          </mxGeometry>
        </mxCell>
        <mxCell id="Fy91isjks8ElhdYOzseE-26" value="" style="endArrow=none;html=1;rounded=0;entryX=0.5;entryY=1;entryDx=0;entryDy=0;" edge="1" parent="1" target="Fy91isjks8ElhdYOzseE-20">
          <mxGeometry width="50" height="50" relative="1" as="geometry">
            <mxPoint x="455" y="930" as="sourcePoint" />
            <mxPoint x="500" y="950" as="targetPoint" />
          </mxGeometry>
        </mxCell>
        <mxCell id="Fy91isjks8ElhdYOzseE-27" value="" style="endArrow=none;html=1;rounded=0;exitX=0.5;exitY=1;exitDx=0;exitDy=0;entryDx=0;entryDy=0;" edge="1" parent="1" source="XbYI6ipFNix7zSzo3XHs-39" target="Fy91isjks8ElhdYOzseE-28">
          <mxGeometry width="50" height="50" relative="1" as="geometry">
            <mxPoint x="195" y="830" as="sourcePoint" />
            <mxPoint x="515" y="900" as="targetPoint" />
            <Array as="points">
              <mxPoint x="195" y="930" />
            </Array>
          </mxGeometry>
        </mxCell>
        <mxCell id="Fy91isjks8ElhdYOzseE-28" value="" style="shape=waypoint;sketch=0;fillStyle=solid;size=6;pointerEvents=1;points=[];fillColor=none;resizable=0;rotatable=0;perimeter=centerPerimeter;snapToPoint=1;" vertex="1" parent="1">
          <mxGeometry x="346" y="920" width="20" height="20" as="geometry" />
        </mxCell>
        <mxCell id="Fy91isjks8ElhdYOzseE-29" value="" style="endArrow=classic;html=1;rounded=0;exitX=0.51;exitY=0.34;exitDx=0;exitDy=0;exitPerimeter=0;entryX=0;entryY=0.5;entryDx=0;entryDy=0;" edge="1" parent="1" source="Fy91isjks8ElhdYOzseE-28" target="XbYI6ipFNix7zSzo3XHs-32">
          <mxGeometry width="50" height="50" relative="1" as="geometry">
            <mxPoint x="290" y="1000" as="sourcePoint" />
            <mxPoint x="340" y="950" as="targetPoint" />
            <Array as="points">
              <mxPoint x="356" y="950" />
              <mxPoint x="130" y="950" />
              <mxPoint x="130" y="665" />
            </Array>
          </mxGeometry>
        </mxCell>
        <mxCell id="Fy91isjks8ElhdYOzseE-30" value="конец" style="ellipse;whiteSpace=wrap;html=1;" vertex="1" parent="1">
          <mxGeometry x="315" y="980" width="77" height="40" as="geometry" />
        </mxCell>
        <mxCell id="Fy91isjks8ElhdYOzseE-33" value="" style="endArrow=classic;html=1;rounded=0;exitX=1;exitY=0.5;exitDx=0;exitDy=0;entryX=0.5;entryY=0;entryDx=0;entryDy=0;" edge="1" parent="1" source="XbYI6ipFNix7zSzo3XHs-32" target="Fy91isjks8ElhdYOzseE-30">
          <mxGeometry width="50" height="50" relative="1" as="geometry">
            <mxPoint x="470" y="740" as="sourcePoint" />
            <mxPoint x="520" y="690" as="targetPoint" />
            <Array as="points">
              <mxPoint x="580" y="665" />
              <mxPoint x="580" y="960" />
              <mxPoint x="353" y="960" />
            </Array>
          </mxGeometry>
        </mxCell>
        <mxCell id="Fy91isjks8ElhdYOzseE-34" value="1" style="text;html=1;align=center;verticalAlign=middle;whiteSpace=wrap;rounded=0;" vertex="1" parent="1">
          <mxGeometry x="165" y="720" width="60" height="30" as="geometry" />
        </mxCell>
        <mxCell id="Fy91isjks8ElhdYOzseE-36" value="2" style="text;html=1;align=center;verticalAlign=middle;whiteSpace=wrap;rounded=0;" vertex="1" parent="1">
          <mxGeometry x="237.5" y="720" width="60" height="30" as="geometry" />
        </mxCell>
        <mxCell id="Fy91isjks8ElhdYOzseE-37" value="3" style="text;html=1;align=center;verticalAlign=middle;whiteSpace=wrap;rounded=0;" vertex="1" parent="1">
          <mxGeometry x="280" y="720" width="60" height="30" as="geometry" />
        </mxCell>
        <mxCell id="Fy91isjks8ElhdYOzseE-38" value="4" style="text;html=1;align=center;verticalAlign=middle;whiteSpace=wrap;rounded=0;" vertex="1" parent="1">
          <mxGeometry x="354" y="720" width="60" height="30" as="geometry" />
        </mxCell>
        <mxCell id="Fy91isjks8ElhdYOzseE-40" value="5" style="text;html=1;align=center;verticalAlign=middle;whiteSpace=wrap;rounded=0;" vertex="1" parent="1">
          <mxGeometry x="425" y="720" width="60" height="30" as="geometry" />
        </mxCell>
        <mxCell id="Fy91isjks8ElhdYOzseE-41" value="6" style="text;html=1;align=center;verticalAlign=middle;whiteSpace=wrap;rounded=0;" vertex="1" parent="1">
          <mxGeometry x="485" y="720" width="60" height="30" as="geometry" />
        </mxCell>
        <mxCell id="Fy91isjks8ElhdYOzseE-46" style="edgeStyle=orthogonalEdgeStyle;rounded=0;orthogonalLoop=1;jettySize=auto;html=1;" edge="1" parent="1" source="Fy91isjks8ElhdYOzseE-43" target="Fy91isjks8ElhdYOzseE-44">
          <mxGeometry relative="1" as="geometry" />
        </mxCell>
        <mxCell id="Fy91isjks8ElhdYOzseE-43" value="loop" style="ellipse;whiteSpace=wrap;html=1;" vertex="1" parent="1">
          <mxGeometry x="600" y="80" width="70" height="30" as="geometry" />
        </mxCell>
        <mxCell id="Fy91isjks8ElhdYOzseE-47" style="edgeStyle=orthogonalEdgeStyle;rounded=0;orthogonalLoop=1;jettySize=auto;html=1;" edge="1" parent="1" source="Fy91isjks8ElhdYOzseE-44" target="Fy91isjks8ElhdYOzseE-45">
          <mxGeometry relative="1" as="geometry" />
        </mxCell>
        <mxCell id="Fy91isjks8ElhdYOzseE-44" value="Ввод с клавиатуры" style="shape=parallelogram;perimeter=parallelogramPerimeter;whiteSpace=wrap;html=1;fixedSize=1;" vertex="1" parent="1">
          <mxGeometry x="567.5" y="140" width="135" height="30" as="geometry" />
        </mxCell>
        <mxCell id="Fy91isjks8ElhdYOzseE-49" style="edgeStyle=orthogonalEdgeStyle;rounded=0;orthogonalLoop=1;jettySize=auto;html=1;" edge="1" parent="1" source="Fy91isjks8ElhdYOzseE-45" target="Fy91isjks8ElhdYOzseE-48">
          <mxGeometry relative="1" as="geometry" />
        </mxCell>
        <mxCell id="Fy91isjks8ElhdYOzseE-45" value="Вывод на экран" style="shape=parallelogram;perimeter=parallelogramPerimeter;whiteSpace=wrap;html=1;fixedSize=1;" vertex="1" parent="1">
          <mxGeometry x="567.5" y="190" width="135" height="30" as="geometry" />
        </mxCell>
        <mxCell id="Fy91isjks8ElhdYOzseE-51" style="edgeStyle=orthogonalEdgeStyle;rounded=0;orthogonalLoop=1;jettySize=auto;html=1;" edge="1" parent="1" source="Fy91isjks8ElhdYOzseE-48" target="Fy91isjks8ElhdYOzseE-50">
          <mxGeometry relative="1" as="geometry" />
        </mxCell>
        <mxCell id="Fy91isjks8ElhdYOzseE-48" value="&#39;*&#39;" style="rhombus;whiteSpace=wrap;html=1;" vertex="1" parent="1">
          <mxGeometry x="610" y="245" width="50" height="45" as="geometry" />
        </mxCell>
        <mxCell id="Fy91isjks8ElhdYOzseE-54" style="edgeStyle=orthogonalEdgeStyle;rounded=0;orthogonalLoop=1;jettySize=auto;html=1;" edge="1" parent="1" source="Fy91isjks8ElhdYOzseE-50" target="Fy91isjks8ElhdYOzseE-53">
          <mxGeometry relative="1" as="geometry" />
        </mxCell>
        <mxCell id="Fy91isjks8ElhdYOzseE-50" value="Сброс" style="rounded=0;whiteSpace=wrap;html=1;" vertex="1" parent="1">
          <mxGeometry x="602.5" y="310" width="65" height="30" as="geometry" />
        </mxCell>
        <mxCell id="Fy91isjks8ElhdYOzseE-59" style="edgeStyle=orthogonalEdgeStyle;rounded=0;orthogonalLoop=1;jettySize=auto;html=1;" edge="1" parent="1" source="Fy91isjks8ElhdYOzseE-53" target="Fy91isjks8ElhdYOzseE-58">
          <mxGeometry relative="1" as="geometry" />
        </mxCell>
        <mxCell id="Fy91isjks8ElhdYOzseE-53" value="&#39;#&#39;" style="rhombus;whiteSpace=wrap;html=1;" vertex="1" parent="1">
          <mxGeometry x="610" y="372.5" width="50" height="45" as="geometry" />
        </mxCell>
        <mxCell id="Fy91isjks8ElhdYOzseE-55" value="" style="shape=waypoint;sketch=0;fillStyle=solid;size=6;pointerEvents=1;points=[];fillColor=none;resizable=0;rotatable=0;perimeter=centerPerimeter;snapToPoint=1;" vertex="1" parent="1">
          <mxGeometry x="625" y="340" width="20" height="20" as="geometry" />
        </mxCell>
        <mxCell id="Fy91isjks8ElhdYOzseE-57" value="" style="endArrow=none;html=1;rounded=0;entryX=1;entryY=0.5;entryDx=0;entryDy=0;" edge="1" parent="1" source="Fy91isjks8ElhdYOzseE-55" target="Fy91isjks8ElhdYOzseE-48">
          <mxGeometry width="50" height="50" relative="1" as="geometry">
            <mxPoint x="680" y="360" as="sourcePoint" />
            <mxPoint x="730" y="310" as="targetPoint" />
            <Array as="points">
              <mxPoint x="680" y="350" />
              <mxPoint x="680" y="268" />
            </Array>
          </mxGeometry>
        </mxCell>
        <mxCell id="Fy91isjks8ElhdYOzseE-61" style="edgeStyle=orthogonalEdgeStyle;rounded=0;orthogonalLoop=1;jettySize=auto;html=1;exitX=0.5;exitY=1;exitDx=0;exitDy=0;" edge="1" parent="1" source="Fy91isjks8ElhdYOzseE-58">
          <mxGeometry relative="1" as="geometry">
            <mxPoint x="635" y="120" as="targetPoint" />
            <Array as="points">
              <mxPoint x="635" y="510" />
              <mxPoint x="530" y="510" />
              <mxPoint x="530" y="120" />
            </Array>
          </mxGeometry>
        </mxCell>
        <mxCell id="Fy91isjks8ElhdYOzseE-58" value="Передача данных в Serial" style="rounded=0;whiteSpace=wrap;html=1;" vertex="1" parent="1">
          <mxGeometry x="577.5" y="440" width="115" height="30" as="geometry" />
        </mxCell>
        <mxCell id="Fy91isjks8ElhdYOzseE-63" value="" style="endArrow=none;html=1;rounded=0;entryX=1;entryY=0.5;entryDx=0;entryDy=0;" edge="1" parent="1" source="Fy91isjks8ElhdYOzseE-64" target="Fy91isjks8ElhdYOzseE-53">
          <mxGeometry width="50" height="50" relative="1" as="geometry">
            <mxPoint x="635" y="500" as="sourcePoint" />
            <mxPoint x="800" y="430" as="targetPoint" />
            <Array as="points">
              <mxPoint x="710" y="490" />
              <mxPoint x="710" y="395" />
            </Array>
          </mxGeometry>
        </mxCell>
        <mxCell id="Fy91isjks8ElhdYOzseE-64" value="" style="shape=waypoint;sketch=0;fillStyle=solid;size=6;pointerEvents=1;points=[];fillColor=none;resizable=0;rotatable=0;perimeter=centerPerimeter;snapToPoint=1;" vertex="1" parent="1">
          <mxGeometry x="625" y="480" width="20" height="20" as="geometry" />
        </mxCell>
        <mxCell id="Fy91isjks8ElhdYOzseE-65" value="-" style="text;html=1;align=center;verticalAlign=middle;whiteSpace=wrap;rounded=0;" vertex="1" parent="1">
          <mxGeometry x="632.5" y="245" width="60" height="30" as="geometry" />
        </mxCell>
        <mxCell id="Fy91isjks8ElhdYOzseE-66" value="+" style="text;html=1;align=center;verticalAlign=middle;whiteSpace=wrap;rounded=0;" vertex="1" parent="1">
          <mxGeometry x="610" y="280" width="60" height="30" as="geometry" />
        </mxCell>
        <mxCell id="Fy91isjks8ElhdYOzseE-67" value="-" style="text;html=1;align=center;verticalAlign=middle;whiteSpace=wrap;rounded=0;" vertex="1" parent="1">
          <mxGeometry x="632.5" y="372.5" width="60" height="30" as="geometry" />
        </mxCell>
        <mxCell id="Fy91isjks8ElhdYOzseE-68" value="+" style="text;html=1;align=center;verticalAlign=middle;whiteSpace=wrap;rounded=0;" vertex="1" parent="1">
          <mxGeometry x="610" y="410" width="60" height="30" as="geometry" />
        </mxCell>
      </root>
    </mxGraphModel>
  </diagram>
</mxfile>
